<mxfile host="Electron" agent="Mozilla/5.0 (Windows NT 10.0; Win64; x64) AppleWebKit/537.36 (KHTML, like Gecko) draw.io/24.7.17 Chrome/128.0.6613.36 Electron/32.0.1 Safari/537.36" version="24.7.17">
  <diagram name="integration" id="JhdghDi4efUQMIzUwyPJ">
    <mxGraphModel dx="4927" dy="5832" grid="1" gridSize="10" guides="1" tooltips="1" connect="1" arrows="1" fold="1" page="1" pageScale="1" pageWidth="1169" pageHeight="827" math="0" shadow="0">
      <root>
        <mxCell id="Dmjc45yBlY_N5giGmj_I-0" />
        <mxCell id="Dmjc45yBlY_N5giGmj_I-1" parent="Dmjc45yBlY_N5giGmj_I-0" />
        <mxCell id="E4XOZ1y7b1-f4QB4vG9a-0" value="" style="rounded=1;whiteSpace=wrap;html=1;fillColor=#dae8fc;strokeColor=#6c8ebf;opacity=50;arcSize=4;" parent="Dmjc45yBlY_N5giGmj_I-1" vertex="1">
          <mxGeometry x="-3500" y="-4730" width="1880" height="870" as="geometry" />
        </mxCell>
        <mxCell id="HfGCAxqmHauibHxcRJDX-33" style="edgeStyle=orthogonalEdgeStyle;rounded=0;orthogonalLoop=1;jettySize=auto;html=1;exitX=1;exitY=0.25;exitDx=0;exitDy=0;entryX=0;entryY=0.5;entryDx=0;entryDy=0;strokeWidth=3;endArrow=none;endFill=0;startArrow=classic;startFill=1;" parent="Dmjc45yBlY_N5giGmj_I-1" source="HfGCAxqmHauibHxcRJDX-6" target="HfGCAxqmHauibHxcRJDX-20" edge="1">
          <mxGeometry relative="1" as="geometry" />
        </mxCell>
        <mxCell id="g090WwEBsMCARW4nhZUb-4" value="&lt;div&gt;&lt;b&gt;Запрос модели&lt;/b&gt;&lt;/div&gt;&lt;b&gt;HTTPS&amp;nbsp;&lt;span style=&quot;background-color: initial;&quot;&gt;(REST)&lt;/span&gt;&lt;/b&gt;" style="edgeLabel;html=1;align=center;verticalAlign=middle;resizable=0;points=[];labelBackgroundColor=none;" parent="HfGCAxqmHauibHxcRJDX-33" vertex="1" connectable="0">
          <mxGeometry x="-0.1526" relative="1" as="geometry">
            <mxPoint y="-34" as="offset" />
          </mxGeometry>
        </mxCell>
        <mxCell id="pu_pw2a60IJHKcLplwBg-14" style="edgeStyle=orthogonalEdgeStyle;rounded=0;orthogonalLoop=1;jettySize=auto;html=1;exitX=0.75;exitY=1;exitDx=0;exitDy=0;entryX=0;entryY=0.5;entryDx=0;entryDy=0;strokeWidth=3;endArrow=classic;endFill=1;curved=1;" parent="Dmjc45yBlY_N5giGmj_I-1" source="HfGCAxqmHauibHxcRJDX-20" target="pu_pw2a60IJHKcLplwBg-1" edge="1">
          <mxGeometry relative="1" as="geometry" />
        </mxCell>
        <mxCell id="g090WwEBsMCARW4nhZUb-3" value="&lt;font style=&quot;font-size: 12px;&quot;&gt;&lt;b&gt;YAML манифесты&lt;/b&gt;&lt;/font&gt;" style="edgeLabel;html=1;align=center;verticalAlign=middle;resizable=0;points=[];labelBackgroundColor=none;" parent="pu_pw2a60IJHKcLplwBg-14" vertex="1" connectable="0">
          <mxGeometry x="-0.0899" y="5" relative="1" as="geometry">
            <mxPoint x="102" y="-24" as="offset" />
          </mxGeometry>
        </mxCell>
        <mxCell id="g090WwEBsMCARW4nhZUb-1" style="edgeStyle=orthogonalEdgeStyle;rounded=0;orthogonalLoop=1;jettySize=auto;html=1;exitX=0.5;exitY=1;exitDx=0;exitDy=0;entryX=0.5;entryY=0;entryDx=0;entryDy=0;strokeWidth=3;endArrow=classic;endFill=1;" parent="Dmjc45yBlY_N5giGmj_I-1" source="HfGCAxqmHauibHxcRJDX-20" target="g090WwEBsMCARW4nhZUb-0" edge="1">
          <mxGeometry relative="1" as="geometry" />
        </mxCell>
        <mxCell id="g090WwEBsMCARW4nhZUb-2" value="&lt;span style=&quot;font-size: 12px;&quot;&gt;&lt;b&gt;Метаданные&lt;/b&gt;&lt;/span&gt;&lt;div&gt;&lt;span style=&quot;font-size: 12px;&quot;&gt;&lt;b&gt;парсинга&lt;/b&gt;&lt;/span&gt;&lt;/div&gt;" style="edgeLabel;html=1;align=center;verticalAlign=middle;resizable=0;points=[];labelBackgroundColor=none;" parent="g090WwEBsMCARW4nhZUb-1" vertex="1" connectable="0">
          <mxGeometry y="-1" relative="1" as="geometry">
            <mxPoint x="1" y="68" as="offset" />
          </mxGeometry>
        </mxCell>
        <mxCell id="HfGCAxqmHauibHxcRJDX-20" value="" style="rounded=1;whiteSpace=wrap;html=1;arcSize=3;fillColor=#f5f5f5;strokeColor=#000000;strokeWidth=3;align=center;verticalAlign=middle;fontFamily=Helvetica;fontSize=12;fontColor=#333333;resizable=1;" parent="Dmjc45yBlY_N5giGmj_I-1" vertex="1">
          <mxGeometry x="-3044" y="-4558.58" width="260" height="290.15" as="geometry" />
        </mxCell>
        <mxCell id="HfGCAxqmHauibHxcRJDX-21" value="&lt;span style=&quot;font-size: 20px;&quot;&gt;ETL Service&lt;/span&gt;" style="text;html=1;align=center;verticalAlign=middle;whiteSpace=wrap;rounded=1;shadow=0;fontSize=23;fontStyle=1;fillColor=#bac8d3;strokeColor=#23445d;" parent="Dmjc45yBlY_N5giGmj_I-1" vertex="1">
          <mxGeometry x="-3034" y="-4547.58" width="240" height="50" as="geometry" />
        </mxCell>
        <mxCell id="HfGCAxqmHauibHxcRJDX-22" value="" style="group;fontSize=10;" parent="Dmjc45yBlY_N5giGmj_I-1" vertex="1" connectable="0">
          <mxGeometry x="-3034" y="-4473.58" width="240" height="40" as="geometry" />
        </mxCell>
        <mxCell id="HfGCAxqmHauibHxcRJDX-23" value="" style="rounded=1;whiteSpace=wrap;html=1;fillColor=#7E878F;strokeColor=#23445d;" parent="HfGCAxqmHauibHxcRJDX-22" vertex="1">
          <mxGeometry width="240" height="40" as="geometry" />
        </mxCell>
        <mxCell id="HfGCAxqmHauibHxcRJDX-24" value="" style="sketch=0;outlineConnect=0;fontColor=#232F3E;gradientColor=none;fillColor=default;strokeColor=none;dashed=0;verticalLabelPosition=bottom;verticalAlign=top;align=center;html=1;fontSize=12;fontStyle=0;aspect=fixed;pointerEvents=1;shape=mxgraph.aws4.gear;rounded=1;" parent="HfGCAxqmHauibHxcRJDX-22" vertex="1">
          <mxGeometry x="210" y="10" width="20" height="20" as="geometry" />
        </mxCell>
        <mxCell id="HfGCAxqmHauibHxcRJDX-25" value="&lt;span style=&quot;font-size: 14px;&quot;&gt;Получение объектной модели диаграммы&lt;/span&gt;" style="text;html=1;align=left;verticalAlign=middle;whiteSpace=wrap;rounded=1;fontSize=13;fontColor=#FFFFFF;strokeColor=none;" parent="HfGCAxqmHauibHxcRJDX-22" vertex="1">
          <mxGeometry x="10" y="5" width="210" height="30" as="geometry" />
        </mxCell>
        <mxCell id="HfGCAxqmHauibHxcRJDX-26" value="&lt;span style=&quot;font-size: 11px;&quot;&gt;&lt;b&gt;ETL&lt;/b&gt;&lt;/span&gt;" style="rounded=1;whiteSpace=wrap;html=1;fillColor=#fad7ac;strokeColor=#b46504;" parent="Dmjc45yBlY_N5giGmj_I-1" vertex="1">
          <mxGeometry x="-3034" y="-4299.73" width="60" height="20" as="geometry" />
        </mxCell>
        <mxCell id="HfGCAxqmHauibHxcRJDX-27" value="&lt;font style=&quot;font-size: 9px;&quot;&gt;2&lt;/font&gt;" style="ellipse;whiteSpace=wrap;html=1;aspect=fixed;rounded=1;fillColor=#0050ef;strokeColor=#001DBC;fontStyle=1;fontColor=#ffffff;" parent="Dmjc45yBlY_N5giGmj_I-1" vertex="1">
          <mxGeometry x="-3054" y="-4563.58" width="20" height="20" as="geometry" />
        </mxCell>
        <mxCell id="HfGCAxqmHauibHxcRJDX-29" value="" style="group;fontSize=10;fillColor=none;" parent="Dmjc45yBlY_N5giGmj_I-1" vertex="1" connectable="0">
          <mxGeometry x="-3034" y="-4423.58" width="240" height="40" as="geometry" />
        </mxCell>
        <mxCell id="HfGCAxqmHauibHxcRJDX-30" value="" style="rounded=1;whiteSpace=wrap;html=1;fillColor=#7E878F;strokeColor=#23445d;" parent="HfGCAxqmHauibHxcRJDX-29" vertex="1">
          <mxGeometry width="240" height="40" as="geometry" />
        </mxCell>
        <mxCell id="HfGCAxqmHauibHxcRJDX-31" value="" style="sketch=0;outlineConnect=0;fontColor=#232F3E;gradientColor=none;fillColor=default;strokeColor=none;dashed=0;verticalLabelPosition=bottom;verticalAlign=top;align=center;html=1;fontSize=12;fontStyle=0;aspect=fixed;pointerEvents=1;shape=mxgraph.aws4.gear;rounded=1;" parent="HfGCAxqmHauibHxcRJDX-29" vertex="1">
          <mxGeometry x="210" y="10" width="20" height="20" as="geometry" />
        </mxCell>
        <mxCell id="HfGCAxqmHauibHxcRJDX-32" value="Преобразование в модель" style="text;html=1;align=left;verticalAlign=middle;whiteSpace=wrap;rounded=1;fontSize=13;fontColor=#FFFFFF;strokeColor=none;" parent="HfGCAxqmHauibHxcRJDX-29" vertex="1">
          <mxGeometry x="10" y="5" width="210" height="30" as="geometry" />
        </mxCell>
        <mxCell id="pu_pw2a60IJHKcLplwBg-0" value="" style="group" parent="Dmjc45yBlY_N5giGmj_I-1" vertex="1" connectable="0">
          <mxGeometry x="-2249.36" y="-4220" width="250.9999999999999" height="190" as="geometry" />
        </mxCell>
        <mxCell id="pu_pw2a60IJHKcLplwBg-1" value="" style="rounded=1;whiteSpace=wrap;html=1;arcSize=3;fillColor=#f5f5f5;strokeColor=#000000;strokeWidth=3;align=center;verticalAlign=middle;fontFamily=Helvetica;fontSize=12;fontColor=#333333;resizable=1;container=0;" parent="pu_pw2a60IJHKcLplwBg-0" vertex="1">
          <mxGeometry x="10.999999999999886" y="10" width="240" height="180" as="geometry" />
        </mxCell>
        <mxCell id="pu_pw2a60IJHKcLplwBg-2" value="4" style="ellipse;whiteSpace=wrap;html=1;aspect=fixed;rounded=1;fillColor=#0050ef;strokeColor=#001DBC;fontStyle=1;fontColor=#ffffff;container=0;" parent="pu_pw2a60IJHKcLplwBg-0" vertex="1">
          <mxGeometry x="240" width="23" height="23" as="geometry" />
        </mxCell>
        <mxCell id="pu_pw2a60IJHKcLplwBg-3" value="" style="rounded=1;whiteSpace=wrap;html=1;arcSize=3;fillColor=#f5f5f5;strokeColor=#000000;strokeWidth=3;align=center;verticalAlign=middle;fontFamily=Helvetica;fontSize=12;fontColor=#333333;resizable=1;container=0;" parent="pu_pw2a60IJHKcLplwBg-0" vertex="1">
          <mxGeometry x="51" y="70.5" width="160" height="70" as="geometry" />
        </mxCell>
        <mxCell id="pu_pw2a60IJHKcLplwBg-4" value="&lt;font style=&quot;font-size: 20px;&quot;&gt;Gitlab&lt;/font&gt;" style="text;html=1;align=center;verticalAlign=middle;whiteSpace=wrap;rounded=1;shadow=0;fontSize=23;fontStyle=1;fillColor=#dae8fc;strokeColor=#6c8ebf;container=0;" parent="pu_pw2a60IJHKcLplwBg-0" vertex="1">
          <mxGeometry x="61" y="81" width="140" height="49" as="geometry" />
        </mxCell>
        <mxCell id="pu_pw2a60IJHKcLplwBg-5" value="" style="shape=image;verticalLabelPosition=bottom;labelBackgroundColor=default;verticalAlign=top;aspect=fixed;imageAspect=0;image=data:image/svg+xml,PHN2ZyB4bWxucz0iaHR0cDovL3d3dy53My5vcmcvMjAwMC9zdmciIGZpbGw9Im5vbmUiIHZpZXdCb3g9IjAgMCAxNiAxNiIgaGVpZ2h0PSI4MDBweCIgd2lkdGg9IjgwMHB4Ij48cGF0aCBkPSJNMTQuOTc1IDguOTA0TDE0LjE5IDYuNTVsLTEuNTUyLTQuNjdhLjI2OC4yNjggMCAwMC0uMjU1LS4xOC4yNjguMjY4IDAgMDAtLjI1NC4xOGwtMS41NTIgNC42NjdINS40MjJMMy44NyAxLjg3OWEuMjY3LjI2NyAwIDAwLS4yNTQtLjE3OS4yNjcuMjY3IDAgMDAtLjI1NC4xOGwtMS41NSA0LjY2Ny0uNzg0IDIuMzU3YS41MTUuNTE1IDAgMDAuMTkzLjU4M2w2Ljc4IDQuODEyIDYuNzc4LTQuODEyYS41MTYuNTE2IDAgMDAuMTk2LS41ODN6IiBmaWxsPSIjRkM2RDI2Ii8+PHBhdGggZD0iTTggMTQuMjk2bDIuNTc4LTcuNzVINS40MjNMOCAxNC4yOTZ6IiBmaWxsPSIjRTI0MzI5Ii8+PHBhdGggZD0iTTggMTQuMjk2bC0yLjU3OS03Ljc1SDEuODEzTDggMTQuMjk2eiIgZmlsbD0iI0ZDNkQyNiIvPjxwYXRoIGQ9Ik0xLjgxIDYuNTQ5bC0uNzg0IDIuMzU0YS41MTUuNTE1IDAgMDAuMTkzLjU4M0w4IDE0LjMgMS44MSA2LjU1eiIgZmlsbD0iI0ZDQTMyNiIvPjxwYXRoIGQ9Ik0xLjgxMiA2LjU0OWgzLjYxMkwzLjg3IDEuODgyYS4yNjguMjY4IDAgMDAtLjI1NC0uMTguMjY4LjI2OCAwIDAwLS4yNTUuMThMMS44MTIgNi41NDl6IiBmaWxsPSIjRTI0MzI5Ii8+PHBhdGggZD0iTTggMTQuMjk2bDIuNTc4LTcuNzVoMy42MTRMOCAxNC4yOTZ6IiBmaWxsPSIjRkM2RDI2Ii8+PHBhdGggZD0iTTE0LjE5IDYuNTQ5bC43ODMgMi4zNTRhLjUxNC41MTQgMCAwMS0uMTkzLjU4M0w4IDE0LjI5Nmw2LjE4OC03Ljc0N2guMDAxeiIgZmlsbD0iI0ZDQTMyNiIvPjxwYXRoIGQ9Ik0xNC4xOSA2LjU0OUgxMC41OGwxLjU1MS00LjY2N2EuMjY3LjI2NyAwIDAxLjI1NS0uMThjLjExNSAwIC4yMTcuMDczLjI1NC4xOGwxLjU1MiA0LjY2N3oiIGZpbGw9IiNFMjQzMjkiLz48L3N2Zz4=;" parent="pu_pw2a60IJHKcLplwBg-0" vertex="1">
          <mxGeometry x="29.999999999999886" y="47" width="50" height="50" as="geometry" />
        </mxCell>
        <mxCell id="pu_pw2a60IJHKcLplwBg-6" value="&lt;span style=&quot;font-size: 11px;&quot;&gt;&lt;b&gt;Storage&lt;/b&gt;&lt;/span&gt;" style="rounded=1;whiteSpace=wrap;html=1;fillColor=#dae8fc;strokeColor=#6c8ebf;" parent="pu_pw2a60IJHKcLplwBg-0" vertex="1">
          <mxGeometry x="20" y="160.0000000000001" width="60" height="20" as="geometry" />
        </mxCell>
        <mxCell id="pu_pw2a60IJHKcLplwBg-7" style="edgeStyle=orthogonalEdgeStyle;rounded=0;orthogonalLoop=1;jettySize=auto;html=1;exitX=0.5;exitY=0;exitDx=0;exitDy=0;entryX=0.5;entryY=1;entryDx=0;entryDy=0;strokeWidth=3;endArrow=classic;endFill=1;" parent="Dmjc45yBlY_N5giGmj_I-1" source="pu_pw2a60IJHKcLplwBg-1" target="HfGCAxqmHauibHxcRJDX-34" edge="1">
          <mxGeometry relative="1" as="geometry" />
        </mxCell>
        <mxCell id="5GQ-NYTJsGiajZCUVAIN-20" value="&lt;b&gt;&lt;font style=&quot;font-size: 12px;&quot;&gt;Модель&lt;/font&gt;&lt;/b&gt;" style="edgeLabel;html=1;align=center;verticalAlign=middle;resizable=0;points=[];labelBackgroundColor=none;" parent="pu_pw2a60IJHKcLplwBg-7" vertex="1" connectable="0">
          <mxGeometry x="-0.5897" y="-1" relative="1" as="geometry">
            <mxPoint as="offset" />
          </mxGeometry>
        </mxCell>
        <mxCell id="pu_pw2a60IJHKcLplwBg-9" value="" style="shape=image;verticalLabelPosition=bottom;labelBackgroundColor=default;verticalAlign=top;aspect=fixed;imageAspect=0;image=data:image/svg+xml,PHN2ZyB4bWxucz0iaHR0cDovL3d3dy53My5vcmcvMjAwMC9zdmciIGZpbGw9Im5vbmUiIGhlaWdodD0iMjU2IiB3aWR0aD0iMjU2IiB2aWV3Qm94PSIwIDAgMjU2IDI1NiI+JiN4YTsgICAgPHBhdGggc3R5bGU9InN0cm9rZS13aWR0aDouNTYxNDA0IiBkPSJNMCAwaDI1NnYyNTZIMHoiIGZpbGw9IiM1MTJiZDQiLz4mI3hhOyAgICA8cGF0aCBzdHlsZT0ic3Ryb2tlLXdpZHRoOi41NjE0MDQiIGQ9Ik00NS42MjcgMTYzLjU1NXEtMi43MTUgMC00LjYxNS0xLjgwOS0xLjktMS44NTYtMS45MDEtNC40MDggMC0yLjU5OCAxLjktNC40NTQgMS45MDEtMS44NTYgNC42MTYtMS44NTYgMi43NiAwIDQuNjYxIDEuODU2IDEuOTQ3IDEuODU2IDEuOTQ2IDQuNDU0IDAgMi41NTEtMS45NDYgNC40MDgtMS45IDEuODEtNC42NiAxLjgxbTcyLjM2LTEuMDIxaC0xMS43NjVMNzUuMjI1IDExMy42M2EyMiAyMiAwIDAgMS0xLjk0Ni0zLjg1aC0uMjcycS4zNjIgMi4xMzQuMzYyIDkuMTR2NDMuNjE0SDYyLjk2MVY5NmgxMi41MzVsMjkuOTU3IDQ3Ljc0M3ExLjkwMSAyLjk3IDIuNDQ0IDQuMDg0aC4xODFxLS40NTItMi42NDQtLjQ1Mi04Ljk1NVY5NmgxMC4zNjJ6bTUwLjY4NSAwaC0zNi40MjhWOTZoMzQuOTh2OS4zNzNoLTI0LjIxdjE4LjgzN2gyMi4zMXY5LjMyNmgtMjIuMzF2MTkuNjczaDI1LjY1OHptNTEuNzcyLTU3LjE2MkgyMDEuOHY1Ny4xNjJoLTEwLjc3di01Ny4xNjJoLTE4LjZWOTZoNDguMDE0eiIgZmlsbD0iI2ZmZiIvPiYjeGE7PC9zdmc+;" parent="Dmjc45yBlY_N5giGmj_I-1" vertex="1">
          <mxGeometry x="-2838" y="-4319.58" width="39.85" height="39.85" as="geometry" />
        </mxCell>
        <mxCell id="pu_pw2a60IJHKcLplwBg-10" value="" style="group;fontSize=10;fillColor=none;" parent="Dmjc45yBlY_N5giGmj_I-1" vertex="1" connectable="0">
          <mxGeometry x="-3034" y="-4373.43" width="240" height="40" as="geometry" />
        </mxCell>
        <mxCell id="pu_pw2a60IJHKcLplwBg-11" value="" style="rounded=1;whiteSpace=wrap;html=1;fillColor=#757E85;strokeColor=#23445d;" parent="pu_pw2a60IJHKcLplwBg-10" vertex="1">
          <mxGeometry width="240" height="40" as="geometry" />
        </mxCell>
        <mxCell id="pu_pw2a60IJHKcLplwBg-12" value="" style="sketch=0;outlineConnect=0;fontColor=#232F3E;gradientColor=none;fillColor=default;strokeColor=none;dashed=0;verticalLabelPosition=bottom;verticalAlign=top;align=center;html=1;fontSize=12;fontStyle=0;aspect=fixed;pointerEvents=1;shape=mxgraph.aws4.gear;rounded=1;" parent="pu_pw2a60IJHKcLplwBg-10" vertex="1">
          <mxGeometry x="210" y="10" width="20" height="20" as="geometry" />
        </mxCell>
        <mxCell id="pu_pw2a60IJHKcLplwBg-13" value="Загрузка в репозиторий .yaml манифестов" style="text;html=1;align=left;verticalAlign=middle;whiteSpace=wrap;rounded=1;fontSize=13;fontColor=#FFFFFF;strokeColor=none;" parent="pu_pw2a60IJHKcLplwBg-10" vertex="1">
          <mxGeometry x="10" y="5" width="210" height="30" as="geometry" />
        </mxCell>
        <mxCell id="g090WwEBsMCARW4nhZUb-0" value="" style="shape=image;verticalLabelPosition=bottom;labelBackgroundColor=default;verticalAlign=top;aspect=fixed;imageAspect=0;image=data:image/svg+xml,PHN2ZyB4bWxucz0iaHR0cDovL3d3dy53My5vcmcvMjAwMC9zdmciIGZpbGw9Im5vbmUiIHZpZXdCb3g9IjAgMCAyNCAyNCIgaGVpZ2h0PSI4MDBweCIgd2lkdGg9IjgwMHB4Ij4mI3hhOzxwYXRoIGZpbGw9IiMxQzI3NEMiIGQ9Ik0yMCAxOEMyMCAyMC4yMDkxIDE2LjQxODMgMjIgMTIgMjJDNy41ODE3MiAyMiA0IDIwLjIwOTEgNCAxOFYxMy45NzRDNC41MDIyMSAxNC41OTA2IDUuMjE0OTUgMTUuMTAyOSA2LjAwNzc0IDE1LjQ5OTJDNy41ODAwNCAxNi4yODU0IDkuNjk5NjcgMTYuNzUgMTIgMTYuNzVDMTQuMzAwMyAxNi43NSAxNi40MiAxNi4yODU0IDE3Ljk5MjMgMTUuNDk5MkMxOC43ODUxIDE1LjEwMjkgMTkuNDk3OCAxNC41OTA2IDIwIDEzLjk3NFYxOFoiLz4mI3hhOzxwYXRoIGZpbGw9IiMxQzI3NEMiIGQ9Ik0xMiAxMC43NUMxNC4zMDAzIDEwLjc1IDE2LjQyIDEwLjI4NTQgMTcuOTkyMyA5LjQ5OTI1QzE4Ljc4NTEgOS4xMDI4NSAxOS40OTc4IDguNTkwNTkgMjAgNy45NzM5N1YxMkMyMCAxMi41IDE4LjIxNDMgMTMuNTkxMSAxNy4zMjE0IDE0LjE1NzZDMTUuOTk4MyAxNC44MTkyIDE0LjExOCAxNS4yNSAxMiAxNS4yNUM5Ljg4MjA1IDE1LjI1IDguMDAxNjggMTQuODE5MiA2LjY3ODU2IDE0LjE1NzZDNS41IDEzLjU2ODMgNCAxMi41IDQgMTJWNy45NzM5N0M0LjUwMjIxIDguNTkwNTkgNS4yMTQ5NSA5LjEwMjg1IDYuMDA3NzQgOS40OTkyNUM3LjU4MDA0IDEwLjI4NTQgOS42OTk2NyAxMC43NSAxMiAxMC43NVoiLz4mI3hhOzxwYXRoIGZpbGw9IiMxQzI3NEMiIGQ9Ik0xNy4zMjE0IDguMTU3NjFDMTUuOTk4MyA4LjgxOTE3IDE0LjExOCA5LjI1IDEyIDkuMjVDOS44ODIwNSA5LjI1IDguMDAxNjggOC44MTkxNyA2LjY3ODU2IDguMTU3NjFDNi4xNjM4NCA3Ljk1NTk2IDUuMDA2MzcgNy4zMTQ5MiA0LjIwMTUgNi4yNzkzNUM0LjA2NDU0IDYuMTAzMTMgNC4wMDU3NiA1Ljg3ODUzIDQuMDM5ODggNS42NTc5OEM0LjA2MjgzIDUuNTA5NjkgNC4wOTQ4IDUuMzU2OTUgNC4xMzU3OCA1LjI2MjI2QzQuODI4MTUgMy40MDU1NCA4LjA4NTggMiAxMiAyQzE1LjkxNDIgMiAxOS4xNzE4IDMuNDA1NTQgMTkuODY0MiA1LjI2MjI2QzE5LjkwNTIgNS4zNTY5NSAxOS45MzcyIDUuNTA5NjkgMTkuOTYwMSA1LjY1Nzk4QzE5Ljk5NDIgNS44Nzg1MyAxOS45MzU1IDYuMTAzMTMgMTkuNzk4NSA2LjI3OTM1QzE4Ljk5MzYgNy4zMTQ5MiAxNy44MzYyIDcuOTU1OTYgMTcuMzIxNCA4LjE1NzYxWiIvPiYjeGE7PC9zdmc+;" parent="Dmjc45yBlY_N5giGmj_I-1" vertex="1">
          <mxGeometry x="-2994" y="-4025" width="160" height="160" as="geometry" />
        </mxCell>
        <mxCell id="E4XOZ1y7b1-f4QB4vG9a-1" value="" style="group" parent="Dmjc45yBlY_N5giGmj_I-1" vertex="1" connectable="0">
          <mxGeometry x="-2258" y="-4550" width="284.5" height="262" as="geometry" />
        </mxCell>
        <mxCell id="HfGCAxqmHauibHxcRJDX-34" value="" style="rounded=1;whiteSpace=wrap;html=1;arcSize=3;fillColor=#f5f5f5;strokeColor=#000000;strokeWidth=3;align=center;verticalAlign=middle;fontFamily=Helvetica;fontSize=12;fontColor=#333333;resizable=1;" parent="E4XOZ1y7b1-f4QB4vG9a-1" vertex="1">
          <mxGeometry x="9.640000000000327" y="8.350000000000364" width="260" height="253.65" as="geometry" />
        </mxCell>
        <mxCell id="HfGCAxqmHauibHxcRJDX-35" value="Система 2" style="text;html=1;align=center;verticalAlign=middle;whiteSpace=wrap;rounded=1;shadow=0;fontSize=23;fontStyle=1;fillColor=#dae8fc;strokeColor=#6c8ebf;" parent="E4XOZ1y7b1-f4QB4vG9a-1" vertex="1">
          <mxGeometry x="20" y="19" width="240" height="50" as="geometry" />
        </mxCell>
        <mxCell id="HfGCAxqmHauibHxcRJDX-36" value="" style="group;fontSize=10;" parent="E4XOZ1y7b1-f4QB4vG9a-1" vertex="1" connectable="0">
          <mxGeometry x="20" y="88" width="240" height="40" as="geometry" />
        </mxCell>
        <mxCell id="HfGCAxqmHauibHxcRJDX-37" value="" style="rounded=1;whiteSpace=wrap;html=1;fillColor=#1C57CD;strokeColor=none;" parent="HfGCAxqmHauibHxcRJDX-36" vertex="1">
          <mxGeometry width="240" height="40" as="geometry" />
        </mxCell>
        <mxCell id="HfGCAxqmHauibHxcRJDX-38" value="" style="sketch=0;outlineConnect=0;fontColor=#232F3E;gradientColor=none;fillColor=default;strokeColor=none;dashed=0;verticalLabelPosition=bottom;verticalAlign=top;align=center;html=1;fontSize=12;fontStyle=0;aspect=fixed;pointerEvents=1;shape=mxgraph.aws4.gear;rounded=1;" parent="HfGCAxqmHauibHxcRJDX-36" vertex="1">
          <mxGeometry x="210" y="10" width="20" height="20" as="geometry" />
        </mxCell>
        <mxCell id="HfGCAxqmHauibHxcRJDX-39" value="&lt;span style=&quot;font-size: 14px;&quot;&gt;Рендер модели&lt;/span&gt;" style="text;html=1;align=left;verticalAlign=middle;whiteSpace=wrap;rounded=1;fontSize=13;fontColor=#FFFFFF;strokeColor=none;" parent="HfGCAxqmHauibHxcRJDX-36" vertex="1">
          <mxGeometry x="10" y="5" width="210" height="30" as="geometry" />
        </mxCell>
        <mxCell id="HfGCAxqmHauibHxcRJDX-40" value="&lt;span style=&quot;font-size: 11px;&quot;&gt;&lt;b&gt;APP&lt;/b&gt;&lt;/span&gt;" style="rounded=1;whiteSpace=wrap;html=1;fillColor=#d5e8d4;strokeColor=#82b366;" parent="E4XOZ1y7b1-f4QB4vG9a-1" vertex="1">
          <mxGeometry x="20" y="232" width="60" height="20" as="geometry" />
        </mxCell>
        <mxCell id="HfGCAxqmHauibHxcRJDX-42" value="" style="group;fontSize=10;" parent="E4XOZ1y7b1-f4QB4vG9a-1" vertex="1" connectable="0">
          <mxGeometry x="20" y="138" width="240" height="40" as="geometry" />
        </mxCell>
        <mxCell id="HfGCAxqmHauibHxcRJDX-43" value="" style="rounded=1;whiteSpace=wrap;html=1;fillColor=#1C57CD;strokeColor=none;" parent="HfGCAxqmHauibHxcRJDX-42" vertex="1">
          <mxGeometry width="240" height="40" as="geometry" />
        </mxCell>
        <mxCell id="HfGCAxqmHauibHxcRJDX-44" value="" style="sketch=0;outlineConnect=0;fontColor=#232F3E;gradientColor=none;fillColor=default;strokeColor=none;dashed=0;verticalLabelPosition=bottom;verticalAlign=top;align=center;html=1;fontSize=12;fontStyle=0;aspect=fixed;pointerEvents=1;shape=mxgraph.aws4.gear;rounded=1;" parent="HfGCAxqmHauibHxcRJDX-42" vertex="1">
          <mxGeometry x="210" y="10" width="20" height="20" as="geometry" />
        </mxCell>
        <mxCell id="HfGCAxqmHauibHxcRJDX-45" value="&lt;span style=&quot;font-size: 14px;&quot;&gt;Проектирование уровней L3 / Code&lt;/span&gt;" style="text;html=1;align=left;verticalAlign=middle;whiteSpace=wrap;rounded=1;fontSize=13;fontColor=#FFFFFF;strokeColor=none;" parent="HfGCAxqmHauibHxcRJDX-42" vertex="1">
          <mxGeometry x="10" y="5" width="210" height="30" as="geometry" />
        </mxCell>
        <mxCell id="HfGCAxqmHauibHxcRJDX-47" value="&lt;b style=&quot;border-color: var(--border-color); font-size: 11px;&quot;&gt;REST API&lt;/b&gt;" style="rounded=1;whiteSpace=wrap;html=1;fillColor=#dae8fc;strokeColor=#6c8ebf;rotation=-90;direction=east;container=0;" parent="E4XOZ1y7b1-f4QB4vG9a-1" vertex="1">
          <mxGeometry x="231.21000000000004" y="120.71000000000004" width="78" height="28.58" as="geometry" />
        </mxCell>
        <mxCell id="pu_pw2a60IJHKcLplwBg-8" value="" style="shape=image;verticalLabelPosition=bottom;labelBackgroundColor=default;verticalAlign=top;aspect=fixed;imageAspect=0;image=data:image/svg+xml,PHN2ZyB4bWxucz0iaHR0cDovL3d3dy53My5vcmcvMjAwMC9zdmciIGhlaWdodD0iNDhweCIgd2lkdGg9IjQ4cHgiIHZpZXdCb3g9IjAgMCA0OCA0OCI+PHBvbHlnb24gcG9pbnRzPSIyMy45ODcsMTcgMTguNzM0LDggMi45NzQsOCAyMy45ODcsNDQgNDUsOCAyOS4yNCw4IiBmaWxsPSIjODFjNzg0Ii8+PHBvbHlnb24gcG9pbnRzPSIyOS4yNCw4IDIzLjk4NywxNyAxOC43MzQsOCAxMS4xNDYsOCAyMy45ODcsMzAgMzYuODI4LDgiIGZpbGw9IiM0NTVhNjQiLz48L3N2Zz4=;" parent="E4XOZ1y7b1-f4QB4vG9a-1" vertex="1">
          <mxGeometry x="212" y="207" width="48" height="48" as="geometry" />
        </mxCell>
        <mxCell id="E4XOZ1y7b1-f4QB4vG9a-2" value="" style="group" parent="Dmjc45yBlY_N5giGmj_I-1" vertex="1" connectable="0">
          <mxGeometry x="-2260" y="-4617" width="290" height="76" as="geometry" />
        </mxCell>
        <mxCell id="E4XOZ1y7b1-f4QB4vG9a-3" value="" style="rounded=1;whiteSpace=wrap;html=1;arcSize=3;fillColor=#f5f5f5;strokeColor=#000000;strokeWidth=3;align=center;verticalAlign=middle;fontFamily=Helvetica;fontSize=12;fontColor=#333333;resizable=1;" parent="E4XOZ1y7b1-f4QB4vG9a-2" vertex="1">
          <mxGeometry x="11.639999999999986" y="11.360000000000127" width="260" height="64.64" as="geometry" />
        </mxCell>
        <mxCell id="E4XOZ1y7b1-f4QB4vG9a-4" value="Система 2-UI" style="text;html=1;align=center;verticalAlign=middle;whiteSpace=wrap;rounded=1;shadow=0;fontSize=23;fontStyle=1;fillColor=#d5e8d4;strokeColor=#82b366;" parent="E4XOZ1y7b1-f4QB4vG9a-2" vertex="1">
          <mxGeometry x="21.639999999999986" y="18.359999999999673" width="240" height="49" as="geometry" />
        </mxCell>
        <mxCell id="E4XOZ1y7b1-f4QB4vG9a-5" value="&lt;font style=&quot;font-size: 11px;&quot;&gt;3&lt;/font&gt;" style="ellipse;whiteSpace=wrap;html=1;aspect=fixed;rounded=1;fillColor=#0050ef;strokeColor=#001DBC;fontStyle=1;fontColor=#ffffff;" parent="E4XOZ1y7b1-f4QB4vG9a-2" vertex="1">
          <mxGeometry width="23" height="23" as="geometry" />
        </mxCell>
        <mxCell id="9IrD4b1ZSClOSkCFqCvw-0" value="" style="group" parent="Dmjc45yBlY_N5giGmj_I-1" vertex="1" connectable="0">
          <mxGeometry x="-2670" y="-4366.43" width="274.0000000000001" height="98" as="geometry" />
        </mxCell>
        <mxCell id="9IrD4b1ZSClOSkCFqCvw-1" value="&lt;font style=&quot;font-size: 23px;&quot;&gt;&lt;b&gt;Broker&lt;/b&gt;&lt;/font&gt;" style="html=1;outlineConnect=0;whiteSpace=wrap;fillColor=#ffff99;shape=mxgraph.archimate3.application;appType=event;archiType=rounded;strokeColor=#ff0000;strokeWidth=3;" parent="9IrD4b1ZSClOSkCFqCvw-0" vertex="1">
          <mxGeometry x="23.110000000000127" y="20" width="250.89" height="75" as="geometry" />
        </mxCell>
        <mxCell id="9IrD4b1ZSClOSkCFqCvw-4" value="" style="shape=image;verticalLabelPosition=bottom;labelBackgroundColor=default;verticalAlign=top;aspect=fixed;imageAspect=0;image=data:image/svg+xml,PHN2ZyB4bWxucz0iaHR0cDovL3d3dy53My5vcmcvMjAwMC9zdmciIHZpZXdCb3g9IjAgMCAxMjggMTI4Ij48cGF0aCBkPSJNMTE5LjUxNyA1MS4xODhINzkuMjkxYTMuNjQxIDMuNjQxIDAgMCAxLTMuNjQtMy42NDJWNS42MkE1LjYwNSA1LjYwNSAwIDAgMCA3MC4wMjggMEg1NS42NmE1LjYwNiA1LjYwNiAwIDAgMC01LjYyNyA1LjYydjQxLjY0NmEzLjkxMyAzLjkxMyAwIDAgMS0zLjkyIDMuOTI1bC0xMy4xODguMDQ3Yy0yLjE3NiAwLTMuOTcyLTEuNzUtMy45MjYtMy45MjZsLjA5NC00MS42ODdBNS42MDYgNS42MDYgMCAwIDAgMjMuNDY3IDBIOS4xYTUuNjEgNS42MSAwIDAgMC01LjYyNiA1LjYyNVYxMjIuOTljMCAyLjczNyAyLjIyIDUuMDEgNS4wMSA1LjAxaDExMS4wMzNhNS4wMTQgNS4wMTQgMCAwIDAgNS4wMDgtNS4wMTFWNTYuMTk1YTQuOTc1IDQuOTc1IDAgMCAwLTUuMDA4LTUuMDA3ek0xMDAuNjYgOTUuMjQyYTYuNTQ1IDYuNTQ1IDAgMCAxLTYuNTI1IDYuNTI0SDgyLjc5MWE2LjU0NSA2LjU0NSAwIDAgMS02LjUyMy02LjUyNFY4My45YTYuNTQ1IDYuNTQ1IDAgMCAxIDYuNTIzLTYuNTI0aDExLjM0M2E2LjU0NSA2LjU0NSAwIDAgMSA2LjUyNSA2LjUyM3ptMCAwIiBmaWxsPSIjZmY2NjAwIi8+PC9zdmc+;" parent="9IrD4b1ZSClOSkCFqCvw-0" vertex="1">
          <mxGeometry x="10" y="3.5799999999999272" width="38" height="38" as="geometry" />
        </mxCell>
        <mxCell id="9IrD4b1ZSClOSkCFqCvw-12" value="5" style="ellipse;whiteSpace=wrap;html=1;aspect=fixed;rounded=1;fillColor=#0050ef;strokeColor=#001DBC;fontStyle=1;fontColor=#ffffff;container=0;" parent="9IrD4b1ZSClOSkCFqCvw-0" vertex="1">
          <mxGeometry x="10" y="75" width="23" height="23" as="geometry" />
        </mxCell>
        <mxCell id="9IrD4b1ZSClOSkCFqCvw-7" style="edgeStyle=orthogonalEdgeStyle;rounded=0;orthogonalLoop=1;jettySize=auto;html=1;entryX=0.5;entryY=0;entryDx=0;entryDy=0;strokeWidth=3;endArrow=classic;endFill=1;entryPerimeter=0;" parent="Dmjc45yBlY_N5giGmj_I-1" source="HfGCAxqmHauibHxcRJDX-34" target="9IrD4b1ZSClOSkCFqCvw-1" edge="1">
          <mxGeometry relative="1" as="geometry">
            <mxPoint x="-2680" y="-4349.57" as="sourcePoint" />
            <mxPoint x="-2069" y="-4219.57" as="targetPoint" />
          </mxGeometry>
        </mxCell>
        <mxCell id="9IrD4b1ZSClOSkCFqCvw-8" value="&lt;b&gt;&lt;font style=&quot;font-size: 12px;&quot;&gt;Запрос модели&lt;br&gt;repositoryId / modelId&lt;/font&gt;&lt;/b&gt;" style="edgeLabel;html=1;align=center;verticalAlign=middle;resizable=0;points=[];labelBackgroundColor=none;" parent="9IrD4b1ZSClOSkCFqCvw-7" vertex="1" connectable="0">
          <mxGeometry x="-0.0899" y="5" relative="1" as="geometry">
            <mxPoint x="-31" y="-26" as="offset" />
          </mxGeometry>
        </mxCell>
        <mxCell id="9IrD4b1ZSClOSkCFqCvw-10" style="edgeStyle=orthogonalEdgeStyle;rounded=0;orthogonalLoop=1;jettySize=auto;html=1;entryX=0.25;entryY=0;entryDx=0;entryDy=0;strokeWidth=3;endArrow=classic;endFill=1;entryPerimeter=0;exitX=1;exitY=0.5;exitDx=0;exitDy=0;startArrow=none;startFill=0;" parent="Dmjc45yBlY_N5giGmj_I-1" source="HfGCAxqmHauibHxcRJDX-20" target="9IrD4b1ZSClOSkCFqCvw-1" edge="1">
          <mxGeometry relative="1" as="geometry">
            <mxPoint x="-2346.56" y="-4614.29" as="sourcePoint" />
            <mxPoint x="-2619.56" y="-4511.29" as="targetPoint" />
          </mxGeometry>
        </mxCell>
        <mxCell id="9IrD4b1ZSClOSkCFqCvw-11" value="&lt;span style=&quot;font-size: 12px;&quot;&gt;&lt;b&gt;Подписка&lt;/b&gt;&lt;/span&gt;&lt;div&gt;&lt;span style=&quot;font-size: 12px;&quot;&gt;&lt;b&gt;updateModelQueue&lt;/b&gt;&lt;/span&gt;&lt;/div&gt;" style="edgeLabel;html=1;align=center;verticalAlign=middle;resizable=0;points=[];labelBackgroundColor=none;" parent="9IrD4b1ZSClOSkCFqCvw-10" vertex="1" connectable="0">
          <mxGeometry x="-0.0899" y="5" relative="1" as="geometry">
            <mxPoint x="-31" y="-26" as="offset" />
          </mxGeometry>
        </mxCell>
        <mxCell id="5GQ-NYTJsGiajZCUVAIN-0" value="&lt;font style=&quot;font-size: 9px;&quot;&gt;2&lt;/font&gt;" style="ellipse;whiteSpace=wrap;html=1;aspect=fixed;rounded=1;fillColor=#e1d5e7;strokeColor=#9673a6;fontStyle=1;" parent="Dmjc45yBlY_N5giGmj_I-1" vertex="1">
          <mxGeometry x="-2330" y="-4425.58" width="20" height="20" as="geometry" />
        </mxCell>
        <mxCell id="5GQ-NYTJsGiajZCUVAIN-3" value="&lt;font style=&quot;font-size: 9px;&quot;&gt;1&lt;/font&gt;" style="ellipse;whiteSpace=wrap;html=1;aspect=fixed;rounded=1;fillColor=#e1d5e7;strokeColor=#9673a6;fontStyle=1;" parent="Dmjc45yBlY_N5giGmj_I-1" vertex="1">
          <mxGeometry x="-2620" y="-4424.87" width="20" height="20" as="geometry" />
        </mxCell>
        <mxCell id="5GQ-NYTJsGiajZCUVAIN-4" style="edgeStyle=orthogonalEdgeStyle;rounded=0;orthogonalLoop=1;jettySize=auto;html=1;entryX=0.25;entryY=0;entryDx=0;entryDy=0;strokeWidth=3;endArrow=none;endFill=0;entryPerimeter=0;exitX=1;exitY=0.25;exitDx=0;exitDy=0;startArrow=classic;startFill=1;" parent="Dmjc45yBlY_N5giGmj_I-1" source="HfGCAxqmHauibHxcRJDX-20" target="9IrD4b1ZSClOSkCFqCvw-1" edge="1">
          <mxGeometry relative="1" as="geometry">
            <mxPoint x="-2750" y="-4508.87" as="sourcePoint" />
            <mxPoint x="-2550" y="-4424.87" as="targetPoint" />
          </mxGeometry>
        </mxCell>
        <mxCell id="5GQ-NYTJsGiajZCUVAIN-5" value="&lt;span style=&quot;font-size: 12px;&quot;&gt;&lt;b&gt;Получение запроса из очереди&lt;/b&gt;&lt;/span&gt;&lt;div&gt;&lt;span style=&quot;font-size: 12px;&quot;&gt;&lt;b&gt;updateModelQueue&lt;/b&gt;&lt;/span&gt;&lt;/div&gt;" style="edgeLabel;html=1;align=center;verticalAlign=middle;resizable=0;points=[];labelBackgroundColor=none;" parent="5GQ-NYTJsGiajZCUVAIN-4" vertex="1" connectable="0">
          <mxGeometry x="-0.0899" y="5" relative="1" as="geometry">
            <mxPoint x="-58" y="-32" as="offset" />
          </mxGeometry>
        </mxCell>
        <mxCell id="5GQ-NYTJsGiajZCUVAIN-6" value="&lt;font style=&quot;font-size: 9px;&quot;&gt;3&lt;/font&gt;" style="ellipse;whiteSpace=wrap;html=1;aspect=fixed;rounded=1;fillColor=#e1d5e7;strokeColor=#9673a6;fontStyle=1;" parent="Dmjc45yBlY_N5giGmj_I-1" vertex="1">
          <mxGeometry x="-2620" y="-4499.58" width="20" height="20" as="geometry" />
        </mxCell>
        <mxCell id="5GQ-NYTJsGiajZCUVAIN-9" value="&lt;font style=&quot;font-size: 9px;&quot;&gt;4&lt;/font&gt;" style="ellipse;whiteSpace=wrap;html=1;aspect=fixed;rounded=1;fillColor=#e1d5e7;strokeColor=#9673a6;fontStyle=1;" parent="Dmjc45yBlY_N5giGmj_I-1" vertex="1">
          <mxGeometry x="-3087" y="-4424.839999999999" width="20" height="20" as="geometry" />
        </mxCell>
        <mxCell id="5GQ-NYTJsGiajZCUVAIN-12" style="edgeStyle=orthogonalEdgeStyle;rounded=0;orthogonalLoop=1;jettySize=auto;html=1;exitX=1;exitY=0.75;exitDx=0;exitDy=0;entryX=0;entryY=0.75;entryDx=0;entryDy=0;strokeWidth=3;endArrow=classic;endFill=1;startArrow=none;startFill=0;" parent="Dmjc45yBlY_N5giGmj_I-1" source="HfGCAxqmHauibHxcRJDX-6" target="HfGCAxqmHauibHxcRJDX-20" edge="1">
          <mxGeometry relative="1" as="geometry">
            <mxPoint x="-3193" y="-4338.7" as="sourcePoint" />
            <mxPoint x="-3044" y="-4338.7" as="targetPoint" />
          </mxGeometry>
        </mxCell>
        <mxCell id="5GQ-NYTJsGiajZCUVAIN-13" value="&lt;div&gt;&lt;font style=&quot;font-size: 12px;&quot;&gt;&lt;b&gt;Модель&lt;/b&gt;&lt;/font&gt;&lt;/div&gt;" style="edgeLabel;html=1;align=center;verticalAlign=middle;resizable=0;points=[];labelBackgroundColor=none;" parent="5GQ-NYTJsGiajZCUVAIN-12" vertex="1" connectable="0">
          <mxGeometry x="-0.1526" relative="1" as="geometry">
            <mxPoint x="8" y="-21" as="offset" />
          </mxGeometry>
        </mxCell>
        <mxCell id="5GQ-NYTJsGiajZCUVAIN-14" value="&lt;font style=&quot;font-size: 9px;&quot;&gt;5&lt;/font&gt;" style="ellipse;whiteSpace=wrap;html=1;aspect=fixed;rounded=1;fillColor=#e1d5e7;strokeColor=#9673a6;fontStyle=1;" parent="Dmjc45yBlY_N5giGmj_I-1" vertex="1">
          <mxGeometry x="-3087" y="-4351.579999999999" width="20" height="20" as="geometry" />
        </mxCell>
        <mxCell id="5GQ-NYTJsGiajZCUVAIN-15" value="&lt;font style=&quot;font-size: 9px;&quot;&gt;6&lt;/font&gt;" style="ellipse;whiteSpace=wrap;html=1;aspect=fixed;rounded=1;fillColor=#e1d5e7;strokeColor=#9673a6;fontStyle=1;" parent="Dmjc45yBlY_N5giGmj_I-1" vertex="1">
          <mxGeometry x="-2924" y="-4125.999999999999" width="20" height="20" as="geometry" />
        </mxCell>
        <mxCell id="5GQ-NYTJsGiajZCUVAIN-16" value="&lt;font style=&quot;font-size: 9px;&quot;&gt;8&lt;/font&gt;" style="ellipse;whiteSpace=wrap;html=1;aspect=fixed;rounded=1;fillColor=#e1d5e7;strokeColor=#9673a6;fontStyle=1;" parent="Dmjc45yBlY_N5giGmj_I-1" vertex="1">
          <mxGeometry x="-2838" y="-4229.999999999999" width="20" height="20" as="geometry" />
        </mxCell>
        <mxCell id="5GQ-NYTJsGiajZCUVAIN-19" value="&lt;font style=&quot;font-size: 9px;&quot;&gt;9&lt;/font&gt;" style="ellipse;whiteSpace=wrap;html=1;aspect=fixed;rounded=1;fillColor=#e1d5e7;strokeColor=#9673a6;fontStyle=1;" parent="Dmjc45yBlY_N5giGmj_I-1" vertex="1">
          <mxGeometry x="-2128.86" y="-4259.999999999999" width="20" height="20" as="geometry" />
        </mxCell>
        <mxCell id="RMWz5AAtTtjDSBrPkOgq-0" value="" style="group" parent="Dmjc45yBlY_N5giGmj_I-1" vertex="1" connectable="0">
          <mxGeometry x="-1920" y="-4220" width="250.9999999999999" height="190" as="geometry" />
        </mxCell>
        <mxCell id="RMWz5AAtTtjDSBrPkOgq-1" value="" style="rounded=1;whiteSpace=wrap;html=1;arcSize=3;fillColor=#f5f5f5;strokeColor=#000000;strokeWidth=3;align=center;verticalAlign=middle;fontFamily=Helvetica;fontSize=12;fontColor=#333333;resizable=1;container=0;" parent="RMWz5AAtTtjDSBrPkOgq-0" vertex="1">
          <mxGeometry x="10.999999999999886" y="10" width="240" height="180" as="geometry" />
        </mxCell>
        <mxCell id="RMWz5AAtTtjDSBrPkOgq-2" value="5" style="ellipse;whiteSpace=wrap;html=1;aspect=fixed;rounded=1;fillColor=#0050ef;strokeColor=#001DBC;fontStyle=1;fontColor=#ffffff;container=0;" parent="RMWz5AAtTtjDSBrPkOgq-0" vertex="1">
          <mxGeometry width="23" height="23" as="geometry" />
        </mxCell>
        <mxCell id="RMWz5AAtTtjDSBrPkOgq-3" value="" style="rounded=1;whiteSpace=wrap;html=1;arcSize=3;fillColor=#f5f5f5;strokeColor=#000000;strokeWidth=3;align=center;verticalAlign=middle;fontFamily=Helvetica;fontSize=12;fontColor=#333333;resizable=1;container=0;" parent="RMWz5AAtTtjDSBrPkOgq-0" vertex="1">
          <mxGeometry x="51" y="70.5" width="160" height="70" as="geometry" />
        </mxCell>
        <mxCell id="RMWz5AAtTtjDSBrPkOgq-4" value="&lt;font style=&quot;font-size: 20px;&quot;&gt;S3 Minio&lt;/font&gt;" style="text;html=1;align=center;verticalAlign=middle;whiteSpace=wrap;rounded=1;shadow=0;fontSize=23;fontStyle=1;fillColor=#dae8fc;strokeColor=#6c8ebf;container=0;" parent="RMWz5AAtTtjDSBrPkOgq-0" vertex="1">
          <mxGeometry x="61" y="81" width="140" height="49" as="geometry" />
        </mxCell>
        <mxCell id="RMWz5AAtTtjDSBrPkOgq-5" value="" style="shape=image;verticalLabelPosition=bottom;labelBackgroundColor=default;verticalAlign=top;aspect=fixed;imageAspect=0;image=data:image/png,iVBORw0KGgoAAAANSUhEUgAAAjMAAARxCAMAAADjzPatAAAAM1BMVEX////HLEjHLEjHLEjHLEjHLEjHLEjHLEjHLEjHLEjHLEjHLEjHLEjHLEjHLEjHLEjHLEjJoTlQAAAAEHRSTlMAECAwQFBgcICQoLDA0ODwVOCoyAAAHx5JREFUeNrt3eGim7iuhmEgCRBCwPd/tefHzJndaTurS0GyJfn9bqA0eZYtyzYZBvJp7vd13fe9/Jhj35/rfB/5dMi/Mz3W/Shf5dyfy50PigzDMAy35fU1lx+yPx+MOJ1nnLezCPNeb3xw3U5Iy6t8lnN78PH1OMJ8CgY2ndYw8inp1xzPiU+ymyHmXZSyM9h0IWY9i2KOhYVU9rp3K9o5V6YoxIizoSbrrPQsZtmYoTJGt475dYZCTbY8jmKcc+ZTTlXI7KVC3mxiMi1R1vSa27tUy7nweWcYZErV7Ky7qWQYanpbLp2lfnaqmsB5liY52bqMmnEvrfLk04+5XjpKu7wphSllxPMTDb5wmUvrsH4Klq20D11hyMiLGtBARnzyk6tQkBFXwqCBDKdqIGMf0EAGNJABDa28AhoiyaMU0BBJbmcBDZFkPEoBDZFkLwU0RJKnYzJ0hKl/QZMh0+nbTDnY5aaY4WhE8KzFfza+JledmRIhK1+Uo7xDmClcfGJmEi+euMLCmklcB/NlOcmrhAk3LH3kXgKFksZFjkhmKGk8ZCmhsvONNc94xjJDl4Z1tjzsVjLMsOBmmGHBzTDDgptEH2Y4gMUww1maUJlL0Lz47mgBS8Or0xrlXuKGkqZNtsBmOFPepgIukcMeQossoc0wO7WIySng/bnc/8q87qZLeXa460f/ssHx/Pn14dNieAiQS9zVo31B+/X7982Pi9WK/qQMjt2c+eqX1R9GtzS5JVc5k2pt8YeC9G4z1vBLGmFXTd/5QUCTX889+BqrRm+++N6vLZn8tiVNmpgNvW//AIrFwQuuIVTMo8Gf+l1/fqJJE3ClLWqSGPzAO02acE1g4Vc2qqOhSROtnBHXoPpoaNLUyr3V96WPhiZNpaisYT66aaSOhvtOgbozH963V0dDk6ZONHr5n14z0kbDuyLClMCfn/3XRkOTJkgJfOWvWxsNFysrZG5cRSijoUkTYtl08WtSRsO1f/u8mn9Lymho0gRYal9eq+iioUljnrPdoskIDZdxreNiO1kVDU0a9+0ZlYWKKhpeFeG8PaNUPqiioUnj24zW2lYTDbf+fZtROx2niYYmjWszeu0QTTTc+jfM5TawZj2uh4a9yk7MaKKhSdOJmWFUu5jLXqVfM6fu49zU7j3RpOlknNFEw15lL2b00NCk6caMHhoOlHvtz+hvCKq9qY29yvQ9vX+i9R59mjROzVjMAFpouPXv04zJmlYJDU0ak1w+P3OaPJbSS4249W8Sp9uBSj/AQJPGIpdXtkbnDnTQcKDcIpfvHVi9MVMHDU0ag1y/32R1klJlk5sD5S6rTas2iM7JCPYqXS5rb67RcKDcX4PG8E9ZBQ17lQ4X24YrWpX9Sg6Uq+fwvKJVQcOBcn8LJ8vTtxpo2Kv0t3AyXdHeXJOmCHbZb1VY2LFX6bAINi00FdCwV6kcnV9Tml2jYa/SX0FTynnz/IT8jJzDgsYWzfX9SvYqdXN2gIa9Sn8dGusu/WU0NGm81Zh/r7gN0VzeemKvUjN6P2JqiObyfiV7lS4nJ99o2Kt0OTn5RsNepcvJyXQX4ep+JWWwz8nJtE9/FQ33KhXzKF2gYa9SM0cUNOxVuslagqC5WK6zV6mXqfSBhnuVitl00Sxe0XBkTy93XTNuj9OwV6mYPQ6aS2Mi9yr9DjRu0VAG+x1ovKLhyJ7jgcYrGo7sOR5oLA/uXdmvpAx2PNAYormyyc1epV5evaDhyJ5aptIJGo7s6WWNhebzjVWO7Hn4Fppc///8ZARH9tTy0DdjedrzczSUwY7X217RcGRPrww+O0HDkT29LCUYGsrgnLOTJZqPT0awV+l7drKsOT9Fw5E9B3+40U57cmRPL69O0FAG++7suUTDkT0Ha5FmaJ6UwSkX3KZoPjuDxZE99yWN5Qm5zdsD9VfSvG3QeDvtyc0VzZLm7AMNZbBiHiUcmo8mVI7sKWYNh+ajCZUje+2rynBoKIMD1MHF2RFhymDNb8CoDnZ2rpwjexEWT87QUAZHWDwZovngKAd7laqZ46H5YHDkyJ5qnl2g4eZKiBX36elcOWWwg+5qtMsI3FyJ0abxhIYyGDTi2p2XTSujOTpAw5G9GL09T2i4uRIFjaNrT9xciYLGz2UEymDt3Es8NMKT8BzZa15UxruMQBkMGikabq6ARoyGI3tx0Hi59sTNleb1QbwbLJTBoBkG4TuYOLIHmkG4XcbNFdCI0VAGG+SVHA1lcOMvwMnxf8kzc2QvEhonN1gog0EzDIPoBgt7laD5K4KNeW6uNP6rjYiGmyuNv4CAaCiDQSN+Zm6uxELj4QYLZbDRF1DioZkpg9tmzoyGI3ugkT4zN1dAI35mbq6ARvrMlMFWWazQvJpD5wK3VcyO07Q/V04ZDBrpM1MGg0b8zBzZA430mbm5AhrxM3NzxSx2pz1b35WjDA6IpvG5ci5wg0b8zJTBoJE+M2UwaMTPzJE9SzRnTjTcXDGM2cG9tnfluMAdEk3bI8KUwaARPzNlMGikz0wZDBrxM1MGm8bsLcIt0XBkzzZzRjTcXAmKpuURYS5wg0b6zJTBoBE/Mxe4QSN9Zspg0IifmTLYOls+NBzZC4vm1eqZubkSF02zc+Vc4AaN9Jkpg0EjfmYucING/MyUwfZ5JUNDGWyfiHflvnxmyuDIaNqcK+fmCmjEz8wFbtCIn5kyGDTSZ+YCN2jEz8zNlSpoDis0dhPFf/9uDGVwleS6jEAZDBrxM1MGg0b6zFzgBo34mSmDQSN+Zsrg6GjsvsEHN1eSomlwRJgL3JXyyHOunDK4VhLdYKEMBo34mSmDQSN9ZsrgBGjsnnnlAndSNLWPCHNzBTRiNFzgrpclCxreY1QvWa49UQaDRvzMlMGg+TI7ZXBSNHWPCFMGg0aMhjIYNFI0XOAGjRgNF7irJsW1J8rgqrG7K2f4E2EH7zHKiabqEWFuroBGioYyGDRiNJTBoJGioQwGjRgNZXDlTAGvPf2MhjK4chJce+I9RqARo+HmCmikaHiPEWjEaHiPEWjEaCiD86AxPLM7Uwa3TfgbLJTBoJGioQwGjRgNZTBoxGh4jxFopGh4j1EqNEsVNJTBLbLGOyL8w7FmDkU0SezLCJy+Ao0UDcc8c6ExPIP1PzT0aEAjRcOLIpKhMVwL/z8aTnm2yh5vk/tv6CdfXqOYnSu3bO8vvCciJxrL98Xcz1IOzORDY1mkTjv9mZRoGAhA4+jWE2kdq7tybzaF8sbqiDA9FNB4OhhBsqKhDgaNuA6mpEmce7hLT6R5jE57cgoTNOJwVRY0js5FkKxouMGWOs9wu5WkeTY2nogLNCy4QcMeArFHwx5C6pgcp+EKG2iYnYg5GtZOoGHtRP4di9OedPaSx+A4DUdpQMPpYGKPhlMR2fOgSUOkmWnSkOZoKINB4+plEcRH1M9g0Q3OH+1Nbs55gob1Nvk1L7adiDDa+5VsO4FGfN2JTxQ0DDTk1+iejGCg6SK6+5UMNNEyf9JWuzHQ9Jv78VmHZGag6VXM/nFXbWWg6VbMx53YjYGmv8XP61r3XnPFzUATQsx2ecdHc8XNQOM+46qxS3hn16mfrKfOzrJiHcz2tu+GzKH2dentcXNvxfNi6a34Jz4eHNhLn9uuOy3olTScDHZa+m7qpYRaScMVBJ+LpdOg/Hyz3O6n9FUyo9al4VKlu9J3t1rmLiy3U2baDL+rneV2P4WMkhm12Ykq2H8hozUnLFTB+Tsy2nXEmyo4fUdG24zWSU9eNO0gy1lnvfKkF5xlff2utcYddcpgjl4FmJbU+iJKR8offG3upyW9XtqbFk0n05KeGZ0N7pNvzv20pNizfzE59TEtKZqZmJwyN/Fs9gY3Jqeo05L8EJSSmYnJKWjt+8EBXa0zCBuTU8RB5qNCVMvMxOSUvvZVP+ukMtCw51Qx06dnn9TMqAw07DnVy+cXAPTOVGoMNByIqFb7Xujd65lRORPB5bg6te+lswiKZ7c1jgZzWs/rAtvGjMbPgvELCN4HGeU7Iger7QB5XP6aNM0srLaTdvHszIwKZla+VtNBRuNMper9RYXlNu+8cj7IaJvROHvFN+t7kFG/J314eyCit1wy+ooWCpqkPRk7MwqbTnRofA8y+lPB9V4wHRqD3I7i14zCVSc6NOrR/HkKfTMKLRq2nLQHGeXfEFVfplzvAHCGRjfLWZybuT450dVz2MYzNaOwcuKL9tfGs22hvSmCc66wDc2sFMFpi18rMzeKYC/FbylBzAwnRbCLeWkvccxcLtTpBCvkfpZAZq6vtnlV8OU8S4lkZnL4TJ1lepdYZq4foln41v01ZWzNXC5oOEJzqfjdSglnZmHhlLApY2vm8qlg3hR8YQVylohmBnac8s5LVmYud5O46e92XrIy8/T4UMxLrs1cLoLZpXTXx7M2c7kIZrHtro9nPg1cfSje3yn/Oz1LbDNXO8E0aKRZSwluZsdM3SX2XsKbuVyNwUC0xD5KfDMrZhIusW3NXF44cYLm+9lKyWDm5vKpcpYy75LDzICZWqXMWTCDGVEpU0oaM1fXfjSCnZYymKGUcWTmhZmcpYyhmRUz6boy3s2wSWneak9nhg2nP5Qyr5LOzB0zlpneBTOYiVH9YoZGHmaofjFDvFW/mKH3ixmqX8wQP71fzMTMUgpmMCPJVjCDmWgLJsywYMIMCybMkP99np7IYCbEGruU/GYemEm4xvZ95oofv/W4xuY8cJQFkzsymGGN7cQMd1USk+FOHG2ZJGYecPFLhjv+jvPwSQYzdPJ8fDuX31nEy+sdk3H6bjTEOLheUNcM72DM1/y1NnP1b+QNmdKbGd4pfbGT9yrdmbn6juPOtyhdNn+tzVx9qBUyvZnht3hSk/H5m189t/Qm92T4bUG2mFx8PZd/GQYy3Zm5+kwnZHozc3m3aYeMUd6bUzOXS+ANMjbZxuHwaeay5RUyJlkGnR+uNDBzeKyx/Mf6ruR5H9yamS4/061HMtbHZd5//faeTzPX//OQMShl/v53fJq5XM7skFHPPLg2c2j9SUBGrZT532zv0szl7kyHyyZjMu8fjle7NLM4HPr6JrP9+MvTLs1c3mzq7se1jcks//rHPJoZLz/RARnNUuanK6kezVz/BF6Q0cvxc6/Lo5mX8lgKGYVGnm8zo8MKy3MepmR+07VwaEbhz6YnMrbbkr8bsR2auT41vSFjU/16NaMwNT0ho9379W1GYWp6QMam+vVqRuGexQgZ7d6vazNToZxxQea/J3h3Zp6UMy7IzEMcMyflzHcXC4a3Jc+vPkNvZjR6miNkbBZMTs3slDPtyby//qtzZuam8DgrZEzJeDOzeSuvvGa3I/PHc7G+zIwac3EPZAzflffnVacvM2uNPxPIfLjGdmlmPOv8pyFz6dNzZUblB/Dyr7TtzlidtyGaGY0XDuyQMSbjyozKh7FA5uM19jd/IsKTGY1hJv1PY9zsyHx3VndkRqWayd4EttuX/DYZR2ZUFk3ZpyY7MoIWhR8za2FqardjsA0BzegMM2/I2DdC3ZjR6VPlnprMNpnmIaIZpeVA6obe5oOMGzM6f0Kp72k/nZDxYubR5n9PL++TD82HmVGlnZf6GIQVmVP+hlMfZpSG3cTHIKwaMx+Q8WFGqx9+g0wFMj7MKLUd8jZnrBozH5FxYWZtVcyFiSsyHsxozUxn2ubM5oqMBzNaf0RpK+DVhsxxG6KaUftEsm5PGq2y3+MQ1YzaGaKshzpv3sg0N6PUzStpb/YbrbIvkGluRq28S/oaaaNV9hUyrc3ozdVJT0Hs/sg0NqM38CZdaG8OybQ1o1fMJH0ZxOyRTFszL73PIeUwc3dJpqkZxV5Vyn6ezZLpMpmWZjQH3oz9PJsl03n9o2pnRvOvKOUwY7JkOhXOizQzM50MM1/m6ZVMMzOqA2/GYWZ2S6aZGdW5OuEwc/NLppUZ1V5VwmFmPP2SaWRGt72ZcJh5OybTxowumYQ/b2CyZaC28d/CjO4nknCnyaT+1Tst3cCM8ieSb6fp5ptMAzNLYZipX/9q3smobmZz/GHkrX9VB+PaZrTJ5LsHZ9H/1e1GVDajviBI94MYs3sydc2M6mTSvXDG4vyD9odU04z+5v6ZrZ1ncf7hPcY1M+l/HunW2a8AZCqaMRh1091PWfTJHPq9iGpmLGq7bAWwQTPvNHgnTy0zFivIbAWwQTPPgkwlM6PFOcV0HWCDD8nkQnIVM7fDgEy6m5MGrwyZh6hmFgsx6d4DYXCZaR2CmhlfJmSytWYMipltCGrmbjIv5ZuZ9IsZsyWCtRmrF65nm5n0i5n3GNPMzerHY7LNTPrFzDEOIc0YvTww36kZ/WLmvA0RzdzNfqEqXTdPv5ixfCW7mZnR7Kdj8nXzlljjsJWZ+bQjk22fSX+byXa/38bMfTcUk+0ExKjejTC+WGphZtosxaQ7ArxF+4D0zYzraUom2zJb/ZDIe4xmxlhMundHT9qf12n+K1bKZubDWEy645zqDQn7BYKmmdFeDHsGDrqdemZG81nJtiOeY89gG+KYmZ4VxFSYq4Mvs/coY+O2PF6lSrJdztb+2N5jyPnUMtneTvSIOQxHMpNtZ1J9mV2pDRHIzJt7Bl+n1tHFOGbSXU3R3s2u9vrSMGayLZnUd7PrDcNhzKT7ucl32GE4ipl0r0DT/uBvA2balHdhG8DzgJlG5V3UBvA2YCY5Ge1rX3XbECtk4s9MlY+hBTCzD8xMrY/MBDPzHpmZfC0QVshEn5mqb8OtkAk+M9X/hFbIxJ6ZGuyprJCJPTM1aJC7NrMnJKM8M7XoQ3g2k/KX1nVnpiZ3SlfIBJ6Z2twpXSETeGZqc0DErZl5YGb6UxqdqV8hE3ZmavWCDJ9mzntKMrpn85q9IMOlmXRnf00+7GanXZ8OyWTs5A2D9qnxdhcEd39ktqRkdD/r94CZf7ImFaN7n6nl2768mTnnrGR0b9rOA2b+znHLSkb3HRBNG56+zLzGtGRU3wHRdpWwU8oE3DRoOhqPNPIC9jTa3hB01NLbx8RkVFszbS9i3E7mpXCbBm1fqjK+vYg57qnJqLZm2r4h4+WFzGtMTUb1J72ejDKp+3gGf5tNl9n3wwmZfUpORvXUTMNl9t1LY+ZchuzR/ONst1Qw/oUlBhmrfsaOmA4GGdW9yVa72aOfPl7y5ZJ+Abw0EuOmjZe8J2NQALd5EftK4zduAdykATwfbsR0UPuqF8CPrsX0MS0pF8D1Z6a7HzFnJ9OSbgFcfWa6OzpbtY3dkLnHnZk8iemlkBmGQfUIRN0TwJMjMe97R2I0j0BU/fFWP03fUo65JzGqRyDufYrpYaPgX1E8A1zv0Mzo6Db2uY6dkVE8A1xtzeRom6CU7sSoXgN6dChmm7oTo3kJ7oUYNpo8zkyOtgk6FaO50fToTMzepxjNdfarMzH3odNsgWamB2I8ZIpzNs/VxlK/YjTX2Tti+ojifvaEmD6it59tedTohhg/mfXOARiWXJ42rx+di9F8p9W9CzHz0H302nlPxNDOc9GacXVABjG67TyTWd7TVuTZ4XEH23bejphOonY9xeBCP8cdkrfzVsSwayBcT2g/2eJITHkgxWCYUW7NeDruUKreo+hn1+CVWQxmLHYNVFsz7sRg5oeofTlLajGYMRhm9PYm7+9SMNPDroHWR3rfS8GM56htTm7JxWBGfZjR6QA7FoMZ9WFmzS4GM9rDjEIH2NNxB8xUGGbu6cVg5u8vSmuY2fOLwcxfUfumpvxiMPPXd+WiAB5jiMGM6jBzZaPJ1QEZzFQbZuYexGBGc5h5dyEGM5rDzL0LMZhRHGY+PGkVTQxmFIeZj9bZLg/IYKbSMLN2IgYzasPMB+vsmGIwozbMLL2IwYzWMCPdz36EFYMZrWFGdk/M+QEZzHzZG2mxnx1bTPdm1vofY3QxvZvROp63dSSmdzNaw8x323m3BGI6N6M1zHzz1XnTVgpmGGa+387LIqZvM1rDzNqVmL7NzNWGmUxi+jaj1Iqd+xLTtRmlYeZPuwaujlSdb8y4H2Z8HcLbxhUzF/KoMMw4EzPpLBX7NbObT+7+xGDmUpRe0rmHEoOZS3kZDzOzRzGYuZLJdphxdQjvx9eGY+bzbJbDjFsxmLmybWA4zDgWg5n2u5OTczGvyeI/3qcZpd3JX49auToa/rvfo8VM422Dn/+KXR3C+/0vGGOm7bbBFk4MZlpvG0zhxGCm8bbBFk8MZj7NTXuYCSMGM237ef8MM66OVO13+yZDh2Ym1WEmlBjMNO3nbRHFYObDnGrDjCsxx1zrD6Y/M7PWMBNQDGY+i87v9U3jGlAMZj6Kzvm8l6dDeIfgXdaYabbQLjHFYKbhQjuoGMy0W2hHFYOZdgvtqGIw02yhHVYMZpottMOKwUyzHe3mOT/+pSjM9LnQPtfPf48OM8KMvYvBjDhL72IwI87RuxjMtNlqiiwGM31VwBpiMNNTBawjBjP9VMBaYjDTSwWsJwYzfVTAmmIw00UFrCoGMx1UwNuk/DFgJnkFrC4GM8krYAMxmEldAZuIwUziCthIDGYkFfCJGMzIMiMGM8K8EYMZWSbEYEaYJ2Iwk7E585oqfBKY+WYeAcTsdb4JzKRpzuy1vgfMfLM5gxjM5GrO7DW/A8wkaM7sdb8BzIRvzuy1P3/MVPuYkojBTPDmzH4P+geU38wNMZjJ0Jw5Wn3umPlOHJ6cOeZmnwZmQu4bNBSDmZBTU1MxmPnWvsGJGMwE3jdoLgYz38kLMZgRTk2IwUzQqcmJGMyEmZrO1c0HgpkQU9Op/DoQzGSfmlyJwUyAqcmZGMy4n5rcicGM86nJoRjMuJ6aXIrBjOepyacYzPidmrbJ62eCGZ9Tk18xmPE5NXkWgxmPU5NvMZjxNzV5F4MZb1OTfzGY+ToPxGBGmLqHx/cgHyRmvsqJGMy4nZr2QB8iZr7IEzGYEeZADGZkuSEGM8IsiMGMMPbv0HNz/QQzQZrAMcVg5ovMiMGMMC/EYMZPEziyGMz8d+6IwYyTJnB0MZip3QR2dFUfM9qZbMSMA2bSmpkRg5nWK+0sYjBTa6WdRwxm6qy0M4nBTI2Vdi4xmPmvKO5pb2OyzwYzv43ennaM6yeYuZ4HYjAjzIYYzAhzIAYzskyIwYwwM2IwU7ec2W/DgJnOzFzaONiz/zYRZn6TG2IwI8yCGMwI80IMZqqUM52IwYxaOdONGMwolTPxLxNgpm4505UYzPwuB2IwI8uEGMwIMyMGM8JsiMGMMG/EYEaWbx4FznaZADMX8kAMZvQ/ka7FYObX7IjBjDCIwYwwN8RgRpgFMZjR6+ilvkyAGYOOHmIwIyuBEYOZ/8odMZhR+DwQg5mv8kIMZoQ5EIMZWcZuLxNgRqUERgxmZB8HYjDzrWyIwYwwb8RgRhjEYOaDEhgxmJFk7vcyAWY+NYMYzBDMEMwQzBDMYIZghmCGYIZghmAGM5jBDMEMwQzBDMEMZjCDGYIZghmCGYIZghnMEMwQzBDMEMwQzGAGM5ghmCGYIZghmCGYwQzBDMEMwQzBDMEMZghmCGYIZghmCGYwgxnMEMwQzBDMEMwQzGCGYIZghmCGYIZgBjOYwQzBDMEMwQzBDGYwgxmCGYIZghmCGYIZzBDMEMwQzBDMEMxgBjOYIZghmCGYIZghmMEMwQzBDMEMwQzBDGYIZghmCGYIZghmMIMZzBDMEMwQzBDMEMxghmCGYIZghmCGYAYzmMEMwQzBDMEMwQxmMIMZghmCGYIZghmCGcwQzBDMEMwQzBDMYAYzmCGYIZghmCGYIZjBDMEMwQzBDMEMwQxmCGYIZghmCGYIZjCDGcwQzBDMEMwQzBDMYIZghmCGYIZghmAGM5jBDMEMwQzBDMEMZjCDGYIZghmCGYIZghnMEMwQzBDMEMwQzGAGM5ghmCGYIZghmCGYwQzBDMEMwQzBDMEMZghmCGYIZghmCGYwgxnMEMwQzBDMEMwQzGCGYIZghmCGYIZgBjOYwQzBDMEMwQzBDGYwgxmCGYIZghmCGYIZzBDMEMwQzBDMEMxgBjOYIZghmCGYIZghmMEMwQzBDMEMwQzBDGYIZghmCGYIZghmMIMZzBDMEMwQzBDMEMxghmCGYIZghmCGYAYzmMEMwQzBDMEMwQxmMIMZghmCGYIZghmCGcwQzBDMEMwQzBDMYAYzmCGYIZghmCGYIZjBDMEMwQzBDMEMwQxmCGYIZghmCGYIZjCDGcwQzBDMEMwQzBDMYIZghmCGYIZghmAGM91nwQyR5o0ZIsz4xgypjgYzoMEMsUaDGdBghlijwQxoMEOs0WAGNJgh1mgwAxrMEGs0mAENZog1GsyABjPEGg1mekdzYoYIczsxQ6zRYIZI0WCGSNFghkjRYIZI0WCGSNFghkjRYIZI0WCGSNFghkjRYIZI0WCGSNFghkjRYIZI0WCGSNFghvyEBjNEmhkzRBsNZogUDWaIFA1miBQNZogUDWaIFA1miBQNZogUDWaIFA1miBQNZogUDWaIFA1miBQNZogUDWaIFA1miBQNZsifsmGGXESDGSJFgxkiRYMZIkWDGSJFgxkiRYMZIkWDGSJFgxkiRYMZIkWDGSJFgxkiRYMZIkWDGSJFgxkiRZPGzP8BE5I2Adv1aL4AAAAASUVORK5CYII=;" parent="RMWz5AAtTtjDSBrPkOgq-0" vertex="1">
          <mxGeometry x="36.24000000000001" y="44.5" width="24.76" height="50" as="geometry" />
        </mxCell>
        <mxCell id="RMWz5AAtTtjDSBrPkOgq-6" value="&lt;span style=&quot;font-size: 11px;&quot;&gt;&lt;b&gt;Storage&lt;/b&gt;&lt;/span&gt;" style="rounded=1;whiteSpace=wrap;html=1;fillColor=#dae8fc;strokeColor=#6c8ebf;" parent="RMWz5AAtTtjDSBrPkOgq-0" vertex="1">
          <mxGeometry x="21" y="160.0000000000001" width="60" height="20" as="geometry" />
        </mxCell>
        <mxCell id="FrsbtWvuxha2zswWVpp3-0" value="" style="aspect=fixed;sketch=0;html=1;dashed=0;whitespace=wrap;verticalLabelPosition=bottom;verticalAlign=top;fillColor=#2875E2;strokeColor=#ffffff;points=[[0.005,0.63,0],[0.1,0.2,0],[0.9,0.2,0],[0.5,0,0],[0.995,0.63,0],[0.72,0.99,0],[0.5,1,0],[0.28,0.99,0]];shape=mxgraph.kubernetes.icon2;prIcon=user" parent="Dmjc45yBlY_N5giGmj_I-1" vertex="1">
          <mxGeometry x="-1830.66" y="-4850" width="83.33" height="80" as="geometry" />
        </mxCell>
        <mxCell id="FrsbtWvuxha2zswWVpp3-1" style="edgeStyle=orthogonalEdgeStyle;rounded=0;orthogonalLoop=1;jettySize=auto;html=1;entryX=0.5;entryY=0;entryDx=0;entryDy=0;strokeWidth=3;endArrow=classic;endFill=1;exitX=0.5;exitY=1;exitDx=0;exitDy=0;exitPerimeter=0;" parent="Dmjc45yBlY_N5giGmj_I-1" source="FrsbtWvuxha2zswWVpp3-0" target="RMWz5AAtTtjDSBrPkOgq-1" edge="1">
          <mxGeometry relative="1" as="geometry">
            <mxPoint x="-1646.56" y="-4502.15" as="sourcePoint" />
            <mxPoint x="-1919.56" y="-4433.15" as="targetPoint" />
          </mxGeometry>
        </mxCell>
        <mxCell id="FrsbtWvuxha2zswWVpp3-2" value="&lt;span style=&quot;font-size: 12px;&quot;&gt;&lt;b&gt;Конфигурация&lt;/b&gt;&lt;/span&gt;&lt;div&gt;&lt;span style=&quot;font-size: 12px;&quot;&gt;&lt;b&gt;маппинга&lt;/b&gt;&lt;/span&gt;&lt;/div&gt;&lt;div&gt;&lt;span style=&quot;font-size: 12px;&quot;&gt;&lt;b&gt;методологий&lt;/b&gt;&lt;/span&gt;&lt;/div&gt;" style="edgeLabel;html=1;align=center;verticalAlign=middle;resizable=0;points=[];labelBackgroundColor=none;" parent="FrsbtWvuxha2zswWVpp3-1" vertex="1" connectable="0">
          <mxGeometry x="-0.0899" y="5" relative="1" as="geometry">
            <mxPoint x="82" y="-5" as="offset" />
          </mxGeometry>
        </mxCell>
        <mxCell id="FrsbtWvuxha2zswWVpp3-3" value="" style="dashed=0;outlineConnect=0;html=1;align=center;labelPosition=center;verticalLabelPosition=bottom;verticalAlign=top;shape=mxgraph.webicons.json;gradientColor=#DFDEDE" parent="Dmjc45yBlY_N5giGmj_I-1" vertex="1">
          <mxGeometry x="-1753" y="-4665.98" width="102.4" height="102.4" as="geometry" />
        </mxCell>
        <mxCell id="FrsbtWvuxha2zswWVpp3-4" style="edgeStyle=orthogonalEdgeStyle;rounded=0;orthogonalLoop=1;jettySize=auto;html=1;exitX=0.5;exitY=1;exitDx=0;exitDy=0;entryX=0.5;entryY=1;entryDx=0;entryDy=0;strokeWidth=3;endArrow=none;endFill=0;curved=1;startArrow=classic;startFill=1;" parent="Dmjc45yBlY_N5giGmj_I-1" source="HfGCAxqmHauibHxcRJDX-20" target="RMWz5AAtTtjDSBrPkOgq-1" edge="1">
          <mxGeometry relative="1" as="geometry">
            <Array as="points">
              <mxPoint x="-2914" y="-3970" />
              <mxPoint x="-1789" y="-3970" />
            </Array>
            <mxPoint x="-2798.15" y="-4069.57" as="sourcePoint" />
            <mxPoint x="-2187.15" y="-3921.57" as="targetPoint" />
          </mxGeometry>
        </mxCell>
        <mxCell id="FrsbtWvuxha2zswWVpp3-5" value="&lt;font style=&quot;font-size: 12px;&quot;&gt;&lt;b&gt;Конфигурация маппинга методологий&lt;/b&gt;&lt;/font&gt;" style="edgeLabel;html=1;align=center;verticalAlign=middle;resizable=0;points=[];labelBackgroundColor=none;" parent="FrsbtWvuxha2zswWVpp3-4" vertex="1" connectable="0">
          <mxGeometry x="-0.0899" y="5" relative="1" as="geometry">
            <mxPoint x="102" y="-24" as="offset" />
          </mxGeometry>
        </mxCell>
        <mxCell id="FrsbtWvuxha2zswWVpp3-6" value="&lt;font style=&quot;font-size: 9px;&quot;&gt;7&lt;/font&gt;" style="ellipse;whiteSpace=wrap;html=1;aspect=fixed;rounded=1;fillColor=#e1d5e7;strokeColor=#9673a6;fontStyle=1;" parent="Dmjc45yBlY_N5giGmj_I-1" vertex="1">
          <mxGeometry x="-2850" y="-4101.999999999999" width="20" height="20" as="geometry" />
        </mxCell>
        <mxCell id="FrsbtWvuxha2zswWVpp3-10" style="rounded=0;orthogonalLoop=1;jettySize=auto;html=1;entryX=0.75;entryY=0;entryDx=0;entryDy=0;strokeWidth=3;endArrow=classic;endFill=1;exitX=0.5;exitY=1;exitDx=0;exitDy=0;exitPerimeter=0;edgeStyle=orthogonalEdgeStyle;elbow=vertical;curved=1;" parent="Dmjc45yBlY_N5giGmj_I-1" source="FrsbtWvuxha2zswWVpp3-0" target="pu_pw2a60IJHKcLplwBg-1" edge="1">
          <mxGeometry relative="1" as="geometry">
            <Array as="points">
              <mxPoint x="-1789" y="-4270" />
              <mxPoint x="-2058" y="-4270" />
            </Array>
            <mxPoint x="-1900" y="-4760" as="sourcePoint" />
            <mxPoint x="-1900" y="-4200" as="targetPoint" />
          </mxGeometry>
        </mxCell>
        <mxCell id="1" value="" style="group" parent="Dmjc45yBlY_N5giGmj_I-1" vertex="1" connectable="0">
          <mxGeometry x="-3480" y="-4607" width="286.5" height="329.4200000000001" as="geometry" />
        </mxCell>
        <mxCell id="HfGCAxqmHauibHxcRJDX-6" value="" style="rounded=1;whiteSpace=wrap;html=1;arcSize=3;fillColor=#f5f5f5;strokeColor=#000000;strokeWidth=3;align=center;verticalAlign=middle;fontFamily=Helvetica;fontSize=12;fontColor=#333333;resizable=1;" parent="1" vertex="1">
          <mxGeometry x="11.640000000000327" y="75.77000000000044" width="260" height="253.65" as="geometry" />
        </mxCell>
        <mxCell id="HfGCAxqmHauibHxcRJDX-7" value="Система 1" style="text;html=1;align=center;verticalAlign=middle;whiteSpace=wrap;rounded=1;shadow=0;fontSize=23;fontStyle=1;fillColor=#dae8fc;strokeColor=#6c8ebf;" parent="1" vertex="1">
          <mxGeometry x="22" y="86.42000000000007" width="240" height="50" as="geometry" />
        </mxCell>
        <mxCell id="HfGCAxqmHauibHxcRJDX-8" value="" style="group;fontSize=10;" parent="1" vertex="1" connectable="0">
          <mxGeometry x="22" y="155.42000000000007" width="240" height="40" as="geometry" />
        </mxCell>
        <mxCell id="HfGCAxqmHauibHxcRJDX-9" value="" style="rounded=1;whiteSpace=wrap;html=1;fillColor=#1C57CD;strokeColor=none;" parent="HfGCAxqmHauibHxcRJDX-8" vertex="1">
          <mxGeometry width="240" height="40" as="geometry" />
        </mxCell>
        <mxCell id="HfGCAxqmHauibHxcRJDX-10" value="" style="sketch=0;outlineConnect=0;fontColor=#232F3E;gradientColor=none;fillColor=default;strokeColor=none;dashed=0;verticalLabelPosition=bottom;verticalAlign=top;align=center;html=1;fontSize=12;fontStyle=0;aspect=fixed;pointerEvents=1;shape=mxgraph.aws4.gear;rounded=1;" parent="HfGCAxqmHauibHxcRJDX-8" vertex="1">
          <mxGeometry x="210" y="10" width="20" height="20" as="geometry" />
        </mxCell>
        <mxCell id="HfGCAxqmHauibHxcRJDX-11" value="&lt;span style=&quot;font-size: 14px;&quot;&gt;Проектирование&lt;/span&gt;" style="text;html=1;align=left;verticalAlign=middle;whiteSpace=wrap;rounded=1;fontSize=13;fontColor=#FFFFFF;strokeColor=none;" parent="HfGCAxqmHauibHxcRJDX-8" vertex="1">
          <mxGeometry x="10" y="5" width="210" height="30" as="geometry" />
        </mxCell>
        <mxCell id="HfGCAxqmHauibHxcRJDX-12" value="&lt;span style=&quot;font-size: 11px;&quot;&gt;&lt;b&gt;APP&lt;/b&gt;&lt;/span&gt;" style="rounded=1;whiteSpace=wrap;html=1;fillColor=#d5e8d4;strokeColor=#82b366;" parent="1" vertex="1">
          <mxGeometry x="22" y="297.4200000000001" width="60" height="20" as="geometry" />
        </mxCell>
        <mxCell id="HfGCAxqmHauibHxcRJDX-14" value="" style="group;fontSize=10;" parent="1" vertex="1" connectable="0">
          <mxGeometry x="22" y="205.42000000000007" width="240" height="40" as="geometry" />
        </mxCell>
        <mxCell id="HfGCAxqmHauibHxcRJDX-15" value="" style="rounded=1;whiteSpace=wrap;html=1;fillColor=#1C57CD;strokeColor=none;" parent="HfGCAxqmHauibHxcRJDX-14" vertex="1">
          <mxGeometry width="240" height="40" as="geometry" />
        </mxCell>
        <mxCell id="HfGCAxqmHauibHxcRJDX-16" value="" style="sketch=0;outlineConnect=0;fontColor=#232F3E;gradientColor=none;fillColor=default;strokeColor=none;dashed=0;verticalLabelPosition=bottom;verticalAlign=top;align=center;html=1;fontSize=12;fontStyle=0;aspect=fixed;pointerEvents=1;shape=mxgraph.aws4.gear;rounded=1;" parent="HfGCAxqmHauibHxcRJDX-14" vertex="1">
          <mxGeometry x="210" y="10" width="20" height="20" as="geometry" />
        </mxCell>
        <mxCell id="HfGCAxqmHauibHxcRJDX-17" value="&lt;span style=&quot;font-size: 14px;&quot;&gt;Ведение методологии&lt;/span&gt;" style="text;html=1;align=left;verticalAlign=middle;whiteSpace=wrap;rounded=1;fontSize=13;fontColor=#FFFFFF;strokeColor=none;" parent="HfGCAxqmHauibHxcRJDX-14" vertex="1">
          <mxGeometry x="10" y="5" width="210" height="30" as="geometry" />
        </mxCell>
        <mxCell id="HfGCAxqmHauibHxcRJDX-19" value="&lt;b style=&quot;border-color: var(--border-color); font-size: 11px;&quot;&gt;REST API&lt;/b&gt;" style="rounded=1;whiteSpace=wrap;html=1;fillColor=#dae8fc;strokeColor=#6c8ebf;rotation=-90;direction=east;container=0;" parent="1" vertex="1">
          <mxGeometry x="233.21000000000004" y="188.1300000000001" width="78" height="28.58" as="geometry" />
        </mxCell>
        <mxCell id="HfGCAxqmHauibHxcRJDX-1" value="" style="rounded=1;whiteSpace=wrap;html=1;arcSize=3;fillColor=#f5f5f5;strokeColor=#000000;strokeWidth=3;align=center;verticalAlign=middle;fontFamily=Helvetica;fontSize=12;fontColor=#333333;resizable=1;" parent="1" vertex="1">
          <mxGeometry x="11.639999999999873" y="11.360000000000582" width="260" height="64.64" as="geometry" />
        </mxCell>
        <mxCell id="HfGCAxqmHauibHxcRJDX-2" value="Система 1-UI" style="text;html=1;align=center;verticalAlign=middle;whiteSpace=wrap;rounded=1;shadow=0;fontSize=23;fontStyle=1;fillColor=#d5e8d4;strokeColor=#82b366;" parent="1" vertex="1">
          <mxGeometry x="21.639999999999873" y="18.359999999999673" width="240" height="49" as="geometry" />
        </mxCell>
        <mxCell id="HfGCAxqmHauibHxcRJDX-3" value="&lt;font style=&quot;font-size: 11px;&quot;&gt;1&lt;/font&gt;" style="ellipse;whiteSpace=wrap;html=1;aspect=fixed;rounded=1;fillColor=#0050ef;strokeColor=#001DBC;fontStyle=1;fontColor=#ffffff;" parent="1" vertex="1">
          <mxGeometry width="23" height="23" as="geometry" />
        </mxCell>
        <mxCell id="2" value="" style="group" parent="Dmjc45yBlY_N5giGmj_I-1" vertex="1" connectable="0">
          <mxGeometry x="-3481.61" y="-4220" width="286.5" height="329.4200000000001" as="geometry" />
        </mxCell>
        <mxCell id="3" value="" style="rounded=1;whiteSpace=wrap;html=1;arcSize=3;fillColor=#f5f5f5;strokeColor=#000000;strokeWidth=3;align=center;verticalAlign=middle;fontFamily=Helvetica;fontSize=12;fontColor=#333333;resizable=1;" parent="2" vertex="1">
          <mxGeometry x="11.640000000000327" y="75.77000000000044" width="260" height="253.65" as="geometry" />
        </mxCell>
        <mxCell id="4" value="&lt;font style=&quot;font-size: 20px;&quot;&gt;HUGO SITE&lt;/font&gt;" style="text;html=1;align=center;verticalAlign=middle;whiteSpace=wrap;rounded=1;shadow=0;fontSize=23;fontStyle=1;fillColor=#dae8fc;strokeColor=#6c8ebf;" parent="2" vertex="1">
          <mxGeometry x="22" y="86.42000000000007" width="240" height="50" as="geometry" />
        </mxCell>
        <mxCell id="5" value="" style="group;fontSize=10;" parent="2" vertex="1" connectable="0">
          <mxGeometry x="22" y="155.42000000000007" width="240" height="40" as="geometry" />
        </mxCell>
        <mxCell id="6" value="" style="rounded=1;whiteSpace=wrap;html=1;fillColor=#1C57CD;strokeColor=none;" parent="5" vertex="1">
          <mxGeometry width="240" height="40" as="geometry" />
        </mxCell>
        <mxCell id="7" value="" style="sketch=0;outlineConnect=0;fontColor=#232F3E;gradientColor=none;fillColor=default;strokeColor=none;dashed=0;verticalLabelPosition=bottom;verticalAlign=top;align=center;html=1;fontSize=12;fontStyle=0;aspect=fixed;pointerEvents=1;shape=mxgraph.aws4.gear;rounded=1;" parent="5" vertex="1">
          <mxGeometry x="210" y="10" width="20" height="20" as="geometry" />
        </mxCell>
        <mxCell id="8" value="&lt;span style=&quot;font-size: 14px;&quot;&gt;Портал архитектурной документации&lt;/span&gt;" style="text;html=1;align=left;verticalAlign=middle;whiteSpace=wrap;rounded=1;fontSize=13;fontColor=#FFFFFF;strokeColor=none;" parent="5" vertex="1">
          <mxGeometry x="10" y="5" width="210" height="30" as="geometry" />
        </mxCell>
        <mxCell id="9" value="&lt;span style=&quot;font-size: 11px;&quot;&gt;&lt;b&gt;APP&lt;/b&gt;&lt;/span&gt;" style="rounded=1;whiteSpace=wrap;html=1;fillColor=#d5e8d4;strokeColor=#82b366;" parent="2" vertex="1">
          <mxGeometry x="22" y="297.4200000000001" width="60" height="20" as="geometry" />
        </mxCell>
        <mxCell id="10" value="" style="group;fontSize=10;" parent="2" vertex="1" connectable="0">
          <mxGeometry x="22" y="205.42000000000007" width="240" height="40" as="geometry" />
        </mxCell>
        <mxCell id="11" value="" style="rounded=1;whiteSpace=wrap;html=1;fillColor=#1C57CD;strokeColor=none;" parent="10" vertex="1">
          <mxGeometry width="240" height="40" as="geometry" />
        </mxCell>
        <mxCell id="12" value="" style="sketch=0;outlineConnect=0;fontColor=#232F3E;gradientColor=none;fillColor=default;strokeColor=none;dashed=0;verticalLabelPosition=bottom;verticalAlign=top;align=center;html=1;fontSize=12;fontStyle=0;aspect=fixed;pointerEvents=1;shape=mxgraph.aws4.gear;rounded=1;" parent="10" vertex="1">
          <mxGeometry x="210" y="10" width="20" height="20" as="geometry" />
        </mxCell>
        <mxCell id="13" value="&lt;span style=&quot;font-size: 14px;&quot;&gt;Описание методологии&lt;/span&gt;" style="text;html=1;align=left;verticalAlign=middle;whiteSpace=wrap;rounded=1;fontSize=13;fontColor=#FFFFFF;strokeColor=none;" parent="10" vertex="1">
          <mxGeometry x="10" y="5" width="210" height="30" as="geometry" />
        </mxCell>
        <mxCell id="16" value="" style="rounded=1;whiteSpace=wrap;html=1;arcSize=3;fillColor=#f5f5f5;strokeColor=#000000;strokeWidth=3;align=center;verticalAlign=middle;fontFamily=Helvetica;fontSize=12;fontColor=#333333;resizable=1;" parent="2" vertex="1">
          <mxGeometry x="11.639999999999873" y="11.360000000000582" width="260" height="64.64" as="geometry" />
        </mxCell>
        <mxCell id="17" value="HUGO-UI" style="text;html=1;align=center;verticalAlign=middle;whiteSpace=wrap;rounded=1;shadow=0;fontSize=23;fontStyle=1;fillColor=#d5e8d4;strokeColor=#82b366;" parent="2" vertex="1">
          <mxGeometry x="21.639999999999873" y="18.359999999999673" width="240" height="49" as="geometry" />
        </mxCell>
        <mxCell id="18" value="&lt;font style=&quot;font-size: 11px;&quot;&gt;4&lt;/font&gt;" style="ellipse;whiteSpace=wrap;html=1;aspect=fixed;rounded=1;fillColor=#0050ef;strokeColor=#001DBC;fontStyle=1;fontColor=#ffffff;" parent="2" vertex="1">
          <mxGeometry width="23" height="23" as="geometry" />
        </mxCell>
        <mxCell id="HD61Xpa4i5LN2KmgT0jy-18" value="" style="shape=image;verticalLabelPosition=bottom;labelBackgroundColor=default;verticalAlign=top;aspect=fixed;imageAspect=0;image=data:image/svg+xml,PHN2ZyB4bWxucz0iaHR0cDovL3d3dy53My5vcmcvMjAwMC9zdmciIHZpZXdCb3g9IjAgMCAxMjggMTI4Ij48cGF0aCBkPSJNNzEuMiA4LjVsMzYuNyAyMS4zYzQuMyAyLjUgNyA3LjIgNyAxMi4ydjQzLjdjMCA1LjYtMyAxMC43LTcuOCAxMy40bC0zNi40IDIwLjVjLTQuOCAyLjctMTAuNyAyLjctMTUuNS0uMWwtMzMuNS0xOS4zYy01LjMtMy04LjUtOC42LTguNS0xNC43VjQ0LjFjMC02LjEgMy4yLTExLjggOC40LTE1TDU0LjQgOC44YzUuMS0zLjIgMTEuNi0zLjMgMTYuOC0uM3oiIGZpbGw9IiNGRjQwODgiLz48cGF0aCBkPSJNNjMgMTI2Yy0zLjUgMC02LjktLjktMTAtMi43TDE5LjUgMTA0Yy02LjYtMy44LTEwLjctMTAuOS0xMC43LTE4LjVWNDQuMWMwLTcuNyAzLjktMTQuNiAxMC40LTE4LjdMNTIuMSA1LjFjNi41LTQgMTQuNi00LjEgMjEuMi0uM0wxMTAgMjYuMWM1LjcgMy4zIDkuMiA5LjQgOS4yIDE1Ljl2NDMuN2MwIDcuMS0zLjggMTMuNy0xMCAxNy4ybC0zNi40IDIwLjVjLTMgMS43LTYuNCAyLjYtOS44IDIuNnptMC0xMTUuM2MtMi4yIDAtNC40LjYtNi4zIDEuOGwtMzMgMjAuM2MtNCAyLjQtNi4zIDYuNy02LjMgMTEuM3Y0MS41YzAgNC41IDIuNCA4LjcgNi4zIDExbDMzLjUgMTkuM2MzLjUgMiA3LjggMiAxMS4zLjFsMzYuNC0yMC41YzMuNS0yIDUuNi01LjYgNS42LTkuNlY0Mi4xYzAtMy41LTEuOS02LjctNC45LTguNUw2OSAxMi4zYy0xLjgtMS4xLTMuOS0xLjYtNi0xLjZ6IiBmaWxsPSIjQzkxNzdFIi8+PHBhdGggZD0iTTM4LjYgOTYuOVYzMC41aDEzLjl2MjQuMmgyM1YzMC41aDEzLjl2NjYuNEg3NS41di0yOWgtMjN2Mjl6IiBmaWxsPSIjRkZGIi8+PC9zdmc+;" parent="2" vertex="1">
          <mxGeometry x="214" y="269.4200000000002" width="48" height="48" as="geometry" />
        </mxCell>
      </root>
    </mxGraphModel>
  </diagram>
</mxfile>
